<svg width="1049" height="824" viewBox="0 0 1049 824" fill="none" xmlns="http://www.w3.org/2000/svg">
<circle cx="661" cy="434" r="100" fill="#25CED1"/>
<path d="M449 299C449 279.302 445.12 259.796 437.582 241.597C430.044 223.399 418.995 206.863 405.066 192.934C391.137 179.005 374.601 167.956 356.403 160.418C338.204 152.88 318.698 149 299 149V299H449Z" fill="#FE5F55"/>
<path d="M300 713C300 693.302 296.12 673.796 288.582 655.597C281.044 637.399 269.995 620.863 256.066 606.934C242.137 593.005 225.601 581.956 207.403 574.418C189.204 566.88 169.698 563 150 563V713H300Z" fill="#F61067"/>
<path d="M1047 149C1027.3 149 1007.8 152.88 989.597 160.418C971.399 167.956 954.863 179.005 940.934 192.934C927.005 206.863 915.956 223.399 908.418 241.597C900.88 259.796 897 279.302 897 299H1047V149Z" fill="#F61067"/>
<path d="M899 351C899 370.698 902.88 390.204 910.418 408.403C917.956 426.601 929.005 443.137 942.934 457.066C956.863 470.995 973.399 482.044 991.597 489.582C1009.8 497.12 1029.3 501 1049 501V351H899Z" fill="#40F9BB"/>
<path d="M509 150C509 169.698 512.88 189.204 520.418 207.403C527.956 225.601 539.005 242.137 552.934 256.066C566.863 269.995 583.399 281.044 601.597 288.582C619.796 296.12 639.302 300 659 300C678.698 300 698.204 296.12 716.403 288.582C734.601 281.044 751.137 269.995 765.066 256.066C778.995 242.137 790.044 225.601 797.582 207.403C805.12 189.204 809 169.698 809 150L659 150L509 150Z" fill="#F9C80E"/>
<path d="M1049 713C1049 693.302 1045.12 673.796 1037.58 655.597C1030.04 637.399 1018.99 620.863 1005.07 606.934C991.137 593.005 974.601 581.956 956.402 574.418C938.204 566.88 918.698 563 899 563L899 713H1049Z" fill="#F9C80E"/>
<path d="M696 714C696 674.218 680.196 636.064 652.066 607.934C623.936 579.804 585.782 564 546 564C506.218 564 468.064 579.804 439.934 607.934C411.804 636.064 396 674.218 396 714L546 714H696Z" fill="#40F99B"/>
<path d="M299 502C318.698 502 338.204 498.12 356.403 490.582C374.601 483.044 391.137 471.995 405.066 458.066C418.995 444.137 430.044 427.601 437.582 409.403C445.12 391.204 449 371.698 449 352H299V502Z" fill="#F9C80E"/>
<path d="M299 352C279.302 352 259.796 355.88 241.597 363.418C223.399 370.956 206.863 382.005 192.934 395.934C179.005 409.863 167.956 426.399 160.418 444.597C152.88 462.796 149 482.302 149 502H299V352Z" fill="#FE5F55"/>
<path d="M299 149C279.302 149 259.796 152.88 241.597 160.418C223.399 167.956 206.863 179.005 192.934 192.934C179.005 206.863 167.956 223.399 160.418 241.597C152.88 259.796 149 279.302 149 299H299V149Z" fill="#40F99B"/>
<path d="M749 563C749 582.698 752.88 602.204 760.418 620.403C767.956 638.601 779.005 655.137 792.934 669.066C806.863 682.995 823.399 694.044 841.597 701.582C859.796 709.12 879.302 713 899 713L899 563L749 563Z" fill="#742DC8"/>
</svg>
